<svg width="120" height="120" viewBox="0 0 120 120" fill="none" xmlns="http://www.w3.org/2000/svg">
<rect width="120" height="120" fill="#0D28D3"/>
<path d="M59.9994 38C72.1497 38 81.9994 47.8496 81.9994 60C81.9994 72.1503 72.1497 82 59.9994 82C47.8493 81.9997 37.9994 72.15 37.9994 60C37.9994 47.8499 47.8493 38.0002 59.9994 38ZM34.3336 75.8891H14.1665V63.6671H34.3336V75.8891ZM105.834 75.8891H85.6665V63.6671H105.834V75.8891ZM59.9994 49C53.9245 49.0003 48.9994 53.925 48.9994 60C48.9994 66.075 53.9245 70.9997 59.9994 71C66.0746 71 70.9994 66.0751 70.9994 60C70.9994 53.9248 66.0746 49 59.9994 49ZM34.3336 56.3329H14.1665V44.1109H34.3336V56.3329ZM105.834 56.3329H85.6665V44.1109H105.834V56.3329Z" fill="white"/>
</svg>
