<svg width="80" height="40" viewBox="0 0 80 40" fill="none" xmlns="http://www.w3.org/2000/svg">
<path d="M39.9995 4C48.8361 4 55.9995 11.1634 55.9995 20C55.9995 28.8366 48.8361 36 39.9995 36C31.1631 35.9998 23.9995 28.8364 23.9995 20C23.9995 11.1636 31.1631 4.00017 39.9995 4ZM21.3335 31.5557H6.6665V22.667H21.3335V31.5557ZM73.3335 31.5557H58.6665V22.667H73.3335V31.5557ZM39.9995 12C35.5814 12.0002 31.9995 15.5818 31.9995 20C31.9995 24.4182 35.5814 27.9998 39.9995 28C44.4178 28 47.9995 24.4183 47.9995 20C47.9995 15.5817 44.4178 12 39.9995 12ZM21.3335 17.333H6.6665V8.44434H21.3335V17.333ZM73.3335 17.333H58.6665V8.44434H73.3335V17.333Z" fill="#BEC4D0"/>
</svg>
