<svg width="32" height="32" viewBox="0 0 32 32" fill="none" xmlns="http://www.w3.org/2000/svg">
<path d="M12.3191 22.4843V13.8402H9.44844V22.4843H12.3194H12.3191ZM10.8844 12.6602C11.8852 12.6602 12.5083 11.9964 12.5083 11.1669C12.4895 10.3185 11.8852 9.67322 10.9034 9.67322C9.92091 9.67322 9.27924 10.3185 9.27924 11.1668C9.27924 11.9963 9.9021 12.6601 10.8655 12.6601H10.8841L10.8844 12.6602ZM13.908 22.4843H16.7784V17.6575C16.7784 17.3995 16.7971 17.1409 16.873 16.9566C17.0804 16.4402 17.5527 15.9057 18.3459 15.9057C19.3843 15.9057 19.8 16.6983 19.8 17.8604V22.4843H22.6703V17.528C22.6703 14.873 21.2543 13.6375 19.3658 13.6375C17.8174 13.6375 17.1373 14.5037 16.7595 15.0937H16.7786V13.8405H13.9081C13.9456 14.6514 13.9079 22.4846 13.9079 22.4846L13.908 22.4843Z" fill="#2C313A"/>
</svg>
