<svg width="32" height="32" viewBox="0 0 32 32" fill="none" xmlns="http://www.w3.org/2000/svg">
<path d="M4 24V10.6667C4 9.6058 4.42173 8.58869 5.17188 7.83854C5.92202 7.0884 6.93913 6.66667 8 6.66667H16C16.7364 6.66667 17.3333 7.26362 17.3333 8C17.3333 8.73638 16.7364 9.33333 16 9.33333H8C7.64638 9.33333 7.30734 9.47391 7.05729 9.72396C6.80724 9.97401 6.66667 10.313 6.66667 10.6667V24L6.67318 24.1315C6.70343 24.4368 6.83843 24.7239 7.05729 24.9427C7.30734 25.1928 7.64638 25.3333 8 25.3333H21.3333C21.687 25.3333 22.026 25.1928 22.276 24.9427C22.5261 24.6927 22.6667 24.3536 22.6667 24V16C22.6667 15.2636 23.2636 14.6667 24 14.6667C24.7364 14.6667 25.3333 15.2636 25.3333 16V24C25.3333 25.0609 24.9116 26.078 24.1615 26.8281C23.4113 27.5783 22.3942 28 21.3333 28H8C6.93913 28 5.92202 27.5783 5.17188 26.8281C4.42173 26.078 4 25.0609 4 24ZM28 12C28 12.7364 27.403 13.3333 26.6667 13.3333C25.9303 13.3333 25.3333 12.7364 25.3333 12V8.55208L15.6094 18.276C15.0887 18.7967 14.2447 18.7967 13.724 18.276C13.2033 17.7553 13.2033 16.9113 13.724 16.3906L23.4479 6.66667H20C19.2636 6.66667 18.6667 6.06971 18.6667 5.33333C18.6667 4.59695 19.2636 4 20 4H26.6667C27.403 4 28 4.59695 28 5.33333V12Z" fill="#2C6FF1"/>
</svg>
