<svg width="32" height="32" viewBox="0 0 32 32" fill="none" xmlns="http://www.w3.org/2000/svg">
<path d="M13.378 11.1882C14.9479 11.1882 15.9756 12.0812 15.9756 13.8933C15.9756 15.699 14.4743 15.821 14.461 15.822C16.4571 15.8221 16.2549 18.1902 16.2549 18.1902C16.2548 21.2815 13.503 21.1941 13.503 21.1941H8.00006V11.1795L13.378 11.1882ZM20.5079 13.6834C24.0096 13.6835 24.0098 16.6876 24.0098 17.6892H19.0069C19.0069 19.6922 20.5079 19.6922 20.5079 19.6922C22.0014 19.692 22.0088 18.2044 22.0089 18.1902H24.0098C24.0097 21.1809 20.5395 21.194 20.5079 21.1941C16.5252 21.1941 16.7526 17.4759 16.7549 17.4392C16.7549 17.4392 16.7491 13.6834 20.5079 13.6834ZM10.001 19.6922H13.003C13.2191 19.6922 14.5038 19.6766 14.504 18.1902C14.504 16.7035 13.003 16.6873 13.003 16.6873H10.001V19.6922ZM20.5079 15.1853C18.974 15.1853 19.0069 16.6882 19.0069 16.6882H22.0089C22.0089 16.6882 22.0411 15.1855 20.5079 15.1853ZM10.001 15.1853H12.753C12.763 15.1853 13.6944 15.1783 13.6944 13.9187C13.6942 12.7035 12.7626 12.6816 12.753 12.6814H10.001V15.1853ZM22.5089 12.1814V13.1824H18.5069V12.1814H22.5089Z" fill="#2C313A"/>
</svg>
