<svg width="32" height="32" viewBox="0 0 32 32" fill="none" xmlns="http://www.w3.org/2000/svg">
<path d="M8.66406 9C8.75003 9.00003 8.83653 9.00544 8.92285 9.01758C9.22452 9.06006 9.52488 9.1788 9.7998 9.38477L10.9854 10.2744L16.0674 14.0859L21.1494 10.2744L22.335 9.38477C22.3741 9.35544 22.414 9.32756 22.4541 9.30176C22.6626 9.16751 22.8834 9.08074 23.1064 9.03613C23.1766 9.02206 23.2471 9.01269 23.3174 9.00684C23.3686 9.00261 23.4197 9 23.4707 9C23.964 8.99962 24.441 9.1949 24.7959 9.53027C24.8737 9.6038 24.9468 9.68303 25.0117 9.76953C25.1147 9.90692 25.1998 10.0601 25.2627 10.2266C25.2942 10.3099 25.3201 10.3966 25.3398 10.4863C25.3595 10.5758 25.373 10.6684 25.3799 10.7637C25.3833 10.8115 25.3848 10.86 25.3848 10.9092V21.709C25.3848 21.8725 25.3522 22.0282 25.2959 22.1719C25.2235 22.3567 25.1095 22.5196 24.9648 22.6504C24.852 22.7524 24.7213 22.8341 24.5771 22.8906C24.5184 22.9136 24.4581 22.9331 24.3955 22.9473C24.305 22.9677 24.211 22.9795 24.1143 22.9795H21.1494V15.7803L16.0674 19.5918L10.9854 15.7803V22.9795H8.02051C7.97665 22.9795 7.93334 22.977 7.89062 22.9727C7.5913 22.9423 7.32311 22.8085 7.12207 22.6074C6.99927 22.4847 6.90234 22.3365 6.83789 22.1719C6.7817 22.0283 6.75 21.8724 6.75 21.709V10.9092C6.75015 9.77977 7.67616 8.99944 8.66406 9Z" fill="#2C313A"/>
</svg>
